<svg xmlns="http://www.w3.org/2000/svg" xmlns:xlink="http://www.w3.org/1999/xlink" width="1815" height="500" viewBox="0 0 1815 500" fill="none"><path d="M255 453C365.457 453 455 363.457 455 253C455 212.546 442.989 174.898 422.34 143.426L312.802 332.525L278.012 332.215L217.642 223.535L116.843 397.612C152.749 431.925 201.413 453 255 453ZM89.3962 365.175L200.692 172.975L235.482 173.285L295.862 281.975L395.242 110.409C359.146 74.9039 309.631 53 255 53C144.543 53 55 142.543 55 253C55 294.574 67.6852 333.186 89.3962 365.175Z" fill-rule="evenodd"  fill="#000000" ></path><g ><path     fill="#000000"  d="M638.592 361.076L598.748 361.076L534.5 204.025L534.5 361.076L500.135 361.076L500.135 144.426L543.299 144.426L604.227 293.674L604.227 144.426L638.592 144.426L638.592 361.076ZM709.148 296.828Q711.639 312.766 724.339 323.308Q737.039 333.85 758.455 333.85Q775.223 333.85 787.591 328.62Q799.959 323.391 808.924 314.758L826.521 338.996Q811.58 353.938 794.896 359.416Q778.211 364.895 758.455 364.895Q740.525 364.895 725.086 358.918Q709.646 352.941 698.357 342.233Q687.068 331.525 680.677 316.75Q674.285 301.975 674.285 283.879Q674.285 266.281 680.179 251.423Q686.072 236.564 696.78 225.69Q707.488 214.816 722.43 208.757Q737.371 202.697 755.467 202.697Q774.227 202.697 789.5 209.089Q804.773 215.48 815.647 227.6Q826.521 239.719 832.664 257.233Q838.807 274.748 838.807 296.828L709.148 296.828ZM799.959 266.613Q797.303 251.672 784.52 242.624Q771.736 233.576 755.467 233.576Q739.197 233.576 726.248 242.624Q713.299 251.672 710.643 266.613L799.959 266.613ZM1019.6 311.77Q1016.94 336.174 1000.42 350.534Q983.904 364.895 959.168 364.895Q945.555 364.895 934.266 360.412Q922.977 355.93 915.008 347.961Q907.039 339.992 902.64 328.786Q898.24 317.58 898.24 304.299L898.24 237.395L863.211 237.395L863.211 206.35L898.24 206.35L898.24 144.426L932.605 144.426L932.605 206.35L997.518 206.35L997.518 237.395L932.605 237.395L932.605 304.299Q932.605 319.24 939.91 326.545Q947.215 333.85 959.168 333.85Q973.777 333.85 980.916 325.383Q988.055 316.916 989.383 304.963L1019.6 311.77ZM1205.2 311.77Q1202.55 336.174 1186.03 350.534Q1169.51 364.895 1144.77 364.895Q1131.16 364.895 1119.87 360.412Q1108.58 355.93 1100.61 347.961Q1092.64 339.992 1088.25 328.786Q1083.85 317.58 1083.85 304.299L1083.85 237.395L1048.82 237.395L1048.82 206.35L1083.85 206.35L1083.85 144.426L1118.21 144.426L1118.21 206.35L1183.12 206.35L1183.12 237.395L1118.21 237.395L1118.21 304.299Q1118.21 319.24 1125.52 326.545Q1132.82 333.85 1144.77 333.85Q1159.38 333.85 1166.52 325.383Q1173.66 316.916 1174.99 304.963L1205.2 311.77ZM1265.96 296.828Q1268.46 312.766 1281.16 323.308Q1293.86 333.85 1315.27 333.85Q1332.04 333.85 1344.41 328.62Q1356.78 323.391 1365.74 314.758L1383.34 338.996Q1368.4 353.938 1351.71 359.416Q1335.03 364.895 1315.27 364.895Q1297.34 364.895 1281.9 358.918Q1266.46 352.941 1255.17 342.233Q1243.88 331.525 1237.49 316.75Q1231.1 301.975 1231.1 283.879Q1231.1 266.281 1237 251.423Q1242.89 236.564 1253.6 225.69Q1264.3 214.816 1279.25 208.757Q1294.19 202.697 1312.28 202.697Q1331.04 202.697 1346.32 209.089Q1361.59 215.48 1372.46 227.6Q1383.34 239.719 1389.48 257.233Q1395.62 274.748 1395.62 296.828L1265.96 296.828ZM1356.78 266.613Q1354.12 251.672 1341.34 242.624Q1328.55 233.576 1312.28 233.576Q1296.01 233.576 1283.06 242.624Q1270.12 251.672 1267.46 266.613L1356.78 266.613ZM1566.62 361.076L1532.25 361.076L1532.25 346.799Q1522.29 355.598 1512.17 360.246Q1502.04 364.895 1489.09 364.895Q1474.15 364.895 1461.37 358.918Q1448.58 352.941 1439.37 342.233Q1430.15 331.525 1424.92 316.584Q1419.7 301.643 1419.7 283.879Q1419.7 266.281 1424.92 251.257Q1430.15 236.232 1439.37 225.524Q1448.58 214.816 1461.37 208.757Q1474.15 202.697 1489.09 202.697Q1502.04 202.697 1512.17 207.097Q1522.29 211.496 1532.25 220.295L1532.25 175.471L1502.37 175.471L1502.37 144.426L1566.62 144.426L1566.62 361.076ZM1532.25 247.521Q1526.11 240.715 1516.4 237.146Q1506.69 233.576 1497.89 233.576Q1478.46 233.576 1466.26 247.521Q1454.06 261.467 1454.06 283.879Q1454.06 306.291 1466.26 320.07Q1478.46 333.85 1497.89 333.85Q1506.69 333.85 1516.4 330.28Q1526.11 326.711 1532.25 319.904L1532.25 247.521ZM1763.68 361.076L1692.96 361.076L1692.96 330.197L1705.24 330.197L1682.5 281.223L1659.75 330.197L1671.87 330.197L1671.87 361.076L1601.81 361.076L1601.81 330.197L1620.57 330.197L1662.74 251.672L1621.24 175.471L1605.63 175.471L1605.63 144.426L1674.36 144.426L1674.36 175.471L1660.42 175.471L1682.5 223.449L1704.91 175.471L1691.3 175.471L1691.3 144.426L1760.36 144.426L1760.36 175.471L1743.59 175.471L1702.25 251.672L1744.42 330.197L1763.68 330.197L1763.68 361.076Z"></path></g></svg>